<svg fill="none" enable-background="new 0 0 12 12" viewBox="0 0 12 12" y="0px" x="0px" xmlns="http://www.w3.org/2000/svg"><linearGradient id="star_circle_fill_yellow_12__a" gradientUnits="userSpaceOnUse" x1="-6" x2="6" y1="6" y2="18"><stop offset="0" stop-color="#ffb73d"></stop><stop offset="1" stop-color="#ffa000"></stop></linearGradient><g clip-rule="evenodd" fill-rule="evenodd"><path d="M6 0a6 6 0 110 12A6 6 0 016 0zm.11 2.6a.25.25 0 00-.33.1l-.96 1.93-2.12.31a.25.25 0 00-.14.43l1.54 1.5-.37 2.12a.25.25 0 00.37.26l1.9-1 1.9 1a.25.25 0 00.37-.26L7.9 6.87l1.54-1.5a.25.25 0 00-.14-.43l-2.12-.3-.96-1.94a.25.25 0 00-.1-.1z" fill="url(#star_circle_fill_yellow_12__a)"></path><path d="M6.11 2.6a.25.25 0 00-.33.1l-.96 1.93-2.12.31a.25.25 0 00-.14.43l1.54 1.5-.37 2.12a.25.25 0 00.37.26l1.9-1 1.9 1a.25.25 0 00.37-.26L7.9 6.87l1.54-1.5a.25.25 0 00-.14-.43l-2.12-.3-.96-1.94a.25.25 0 00-.1-.1z" fill="#fff"></path></g></svg>