<svg height="16" viewBox="-2 -2 19 19" width="16" xmlns="http://www.w3.org/2000/svg"><path fill="#fff" d="M9.26 10.216c1.128-1.129 2.905-1.233 4.086-.239l.854.719c.974.82 1.073 2.298.22 3.3-.466.539-1.121.877-1.829.944-2.728.367-5.589-.947-8.585-3.944-2.997-2.997-4.312-5.859-3.944-8.586.019-.213.063-.424.132-.627.159-.466.439-.881.812-1.203 1.003-.853 2.48-.755 3.3.22l.718.854c.995 1.18.892 2.957-.237 4.086l-.613.612c-.163.164-.217.407-.137.624.223.609.792 1.37 1.705 2.284.914.914 1.675 1.482 2.283 1.706.217.08.461.026.624-.138z" /></svg>